<svg width="35" height="35" viewBox="0 0 35 35" fill="none" xmlns="http://www.w3.org/2000/svg">
<g clip-path="url(#clip0_17_4260)">
<path fill-rule="evenodd" clip-rule="evenodd" d="M17.5 0C22.332 0 26.7087 1.95901 29.8749 5.12515C33.041 8.29129 35 12.668 35 17.5C35 22.332 33.041 26.7087 29.8749 29.8749C26.7087 33.0444 22.332 35 17.5 35C12.668 35 8.29129 33.0444 5.12515 29.8749C1.95556 26.7087 0 22.3354 0 17.5C0 12.6646 1.95556 8.29129 5.12515 5.12515C8.29129 1.95901 12.6646 0 17.5 0Z" fill="#060829"/>
<path fill-rule="evenodd" clip-rule="evenodd" d="M17.5002 8.2085C18.1107 8.2085 18.6108 8.7086 18.6108 9.31906V17.193C18.6108 17.8035 18.1107 18.3036 17.5002 18.3036C16.8897 18.3036 16.3896 17.8035 16.3896 17.193V9.31906C16.3896 8.7086 16.8897 8.2085 17.5002 8.2085Z" fill="white"/>
<path fill-rule="evenodd" clip-rule="evenodd" d="M22.5321 14.2649C22.9667 14.6995 22.9667 15.4065 22.5321 15.8342L18.314 20.0557C18.314 20.0557 18.2933 20.0764 18.2864 20.0833C18.0726 20.2902 17.8036 20.4006 17.5208 20.4075H17.4966H17.469C17.1931 20.404 16.9172 20.2937 16.7103 20.0833C16.7103 20.0833 16.6896 20.0626 16.6827 20.0557L12.4646 15.8342C12.03 15.4065 12.03 14.696 12.4646 14.2649C12.8923 13.8303 13.6028 13.8303 14.0339 14.2649L17.4932 17.7242L20.9525 14.2649C21.387 13.8303 22.0906 13.8303 22.5218 14.2649H22.5321Z" fill="white"/>
<path fill-rule="evenodd" clip-rule="evenodd" d="M8.60177 21.9353H26.3984C27.0088 21.9353 27.5089 22.4354 27.5089 23.0459C27.5089 23.6563 27.0088 24.1564 26.3984 24.1564H8.60177C7.99131 24.1564 7.49121 23.6563 7.49121 23.0459C7.49121 22.4354 7.99131 21.9353 8.60177 21.9353Z" fill="white"/>
</g>
<defs>
<clipPath id="clip0_17_4260">
<rect width="35" height="35" fill="white"/>
</clipPath>
</defs>
</svg>
