<svg width="138" height="90" viewBox="0 0 138 90" fill="none" xmlns="http://www.w3.org/2000/svg">
<g clip-path="url(#clip0_14_675)">
<path d="M23.9978 50.005V10.0101H39.3852V2.96021H0.840088V10.0101H16.2275V50.005H23.9978Z" fill="#7D8DDF"/>
<path d="M36.044 13.9166C35.2318 13.062 34.1743 12.6348 32.8715 12.6348C31.5688 12.6348 30.5573 13.062 29.7297 13.9166C28.9021 14.7711 28.4883 15.824 28.4883 17.0753C28.4883 18.3265 28.9021 19.3794 29.7297 20.234C30.5573 21.0885 31.6148 21.5157 32.8715 21.5157C34.1283 21.5157 35.2318 21.0885 36.044 20.234C36.8563 19.3794 37.2548 18.3265 37.2548 17.0753C37.2548 15.824 36.8563 14.7711 36.044 13.9166Z" fill="#7D8DDF"/>
<path d="M36.5804 24.7356H29.1626V49.9899H36.5804V24.7356Z" fill="#7D8DDF"/>
<path d="M84.1529 18.6165C81.6087 20.0967 79.601 22.0957 78.1144 24.6288C76.6277 27.1618 75.8921 30.0153 75.8921 33.2045C75.8921 36.3938 76.6431 39.2473 78.1604 41.8108C79.6623 44.3592 81.716 46.3734 84.3061 47.8231C86.8962 49.2727 89.8082 50.0051 93.042 50.0051C95.5555 50.0051 97.9463 49.5321 100.199 48.6013C102.452 47.6552 104.368 46.2666 105.931 44.4355L101.211 39.6593C100.215 40.7732 99.0192 41.6277 97.5938 42.2076C96.1685 42.7874 94.6359 43.0774 92.9654 43.0774C91.0343 43.0774 89.3177 42.6654 87.8311 41.8261C86.3445 41.0021 85.195 39.8271 84.3827 38.3012C83.9996 37.5687 83.7084 36.7905 83.5092 35.9512H107.678C107.816 35.2798 107.908 34.6694 107.985 34.1048C108.046 33.5402 108.092 32.9909 108.092 32.4568C108.092 29.3592 107.433 26.6125 106.1 24.1862C104.766 21.76 102.943 19.8678 100.628 18.4792C98.3142 17.0906 95.6474 16.3887 92.6282 16.3887C89.6089 16.3887 86.697 17.1211 84.1529 18.6013V18.6165ZM99.9081 27.3602C100.291 28.1079 100.567 28.9624 100.751 29.9085H83.5245C83.7084 29.1455 83.9689 28.4436 84.3061 27.7874C85.0724 26.3378 86.1452 25.1934 87.5399 24.3999C88.9346 23.5911 90.5745 23.1944 92.4749 23.1944C94.3754 23.1944 95.8007 23.5606 97.0268 24.2625C98.2682 24.9797 99.2184 26.0021 99.8928 27.3602H99.9081Z" fill="#7D8DDF"/>
<path d="M126.821 42.6347C125.962 43.123 124.706 43.3672 123.035 43.3672C121.196 43.3672 119.541 43.0467 118.069 42.3906C116.613 41.7344 115.311 40.7731 114.192 39.4608L109.471 44.1607C110.514 45.4119 111.724 46.4801 113.119 47.3499C114.514 48.2197 116.046 48.8911 117.717 49.3641C119.387 49.8372 121.119 50.0661 122.912 50.0661C126.698 50.0661 129.687 49.1505 131.894 47.3041C134.1 45.473 135.204 42.9857 135.204 39.8423C135.204 37.8738 134.805 36.2716 133.993 35.0355C133.181 33.7995 132.139 32.8229 130.851 32.0752C129.564 31.3428 128.215 30.7477 126.805 30.3204C125.395 29.8931 124.031 29.4964 122.759 29.1454C121.472 28.7944 120.43 28.3672 119.617 27.8636C118.805 27.3753 118.407 26.6734 118.407 25.7731C118.407 24.8728 118.805 24.2777 119.617 23.8199C120.43 23.3774 121.579 23.1485 123.066 23.1485C124.644 23.1485 126.039 23.4384 127.25 24.0183C128.46 24.5981 129.549 25.4679 130.484 26.6429L135.204 21.943C133.855 20.1118 132.185 18.7232 130.177 17.8077C128.169 16.8921 125.87 16.4343 123.265 16.4343C120.797 16.4343 118.667 16.8311 116.889 17.6398C115.111 18.4486 113.732 19.593 112.767 21.0732C111.801 22.5533 111.311 24.3234 111.311 26.3835C111.311 28.3061 111.709 29.8779 112.521 31.0834C113.334 32.2889 114.376 33.2502 115.663 33.9369C116.951 34.6388 118.299 35.1881 119.709 35.5849C121.135 35.9816 122.483 36.3784 123.755 36.7599C125.043 37.1413 126.085 37.5991 126.897 38.1332C127.709 38.6673 128.108 39.4303 128.108 40.4221C128.108 41.414 127.679 42.0854 126.821 42.5737V42.6347Z" fill="#7D8DDF"/>
<path d="M44.8566 60.6866C43.9217 59.6032 42.8182 58.6876 41.5155 57.9857C39.5997 56.9328 37.4081 56.3987 34.9406 56.3987C32.0133 56.3987 29.3772 57.1464 27.0017 58.6571C24.6415 60.1525 22.7717 62.182 21.3923 64.6998C20.013 67.2329 19.3386 70.0864 19.3386 73.2756C19.3386 76.4648 20.0283 79.242 21.3923 81.7751C22.7717 84.3081 24.6261 86.3071 27.0017 87.7873C29.3619 89.2674 32.0133 89.9999 34.9406 89.9999C37.4081 89.9999 39.6151 89.4811 41.5615 88.4282C42.8489 87.7263 43.9523 86.8259 44.8719 85.773V89.3285H52.2897V57.0701H44.8719V60.6866H44.8566ZM42.8029 80.2644C41.117 82.0955 38.8947 83.0264 36.1514 83.0264C34.3582 83.0264 32.7643 82.6143 31.3849 81.7903C30.0056 80.9663 28.9328 79.8066 28.1511 78.3265C27.3695 76.8463 26.971 75.1525 26.971 73.2146C26.971 71.2766 27.3695 69.5828 28.1511 68.1027C28.9328 66.6225 30.0209 65.478 31.3849 64.6388C32.7643 63.8148 34.3429 63.4028 36.1514 63.4028C37.9598 63.4028 39.5997 63.8148 40.9791 64.6388C42.3584 65.4628 43.4159 66.6225 44.1822 68.1027C44.9485 69.5828 45.3317 71.2919 45.3317 73.2146C45.3317 76.0833 44.4888 78.4333 42.8029 80.2644Z" fill="#7D8DDF"/>
<path d="M67.0028 57.0703H59.585V89.3287H67.0028V57.0703Z" fill="#7D8DDF"/>
<path d="M63.2939 42.2839C62.0372 42.2839 60.9797 42.7112 60.1521 43.5657C59.3245 44.4203 58.9106 45.4732 58.9106 46.7244C58.9106 47.9757 59.3245 49.0286 60.1521 49.8831C60.9797 50.7376 62.0372 51.1649 63.2939 51.1649C64.5507 51.1649 65.6541 50.7376 66.4664 49.8831C67.2787 49.0286 67.6772 47.9757 67.6772 46.7244C67.6772 45.4732 67.2787 44.4203 66.4664 43.5657C65.6541 42.7112 64.5966 42.2839 63.2939 42.2839Z" fill="#7D8DDF"/>
<path d="M95.5553 57.2685C94.2526 56.6886 92.7813 56.3987 91.1721 56.3987C87.4785 56.3987 84.7198 57.6652 82.896 60.1983C82.8347 60.2746 82.7887 60.3661 82.7274 60.4577V57.0701H75.3096V89.3285H82.7274V71.3834C82.7274 68.6062 83.4018 66.5615 84.7504 65.2644C86.0991 63.9674 87.8157 63.3112 89.8847 63.3112C90.8349 63.3112 91.6625 63.4485 92.3828 63.7079C93.1032 63.9826 93.7622 64.4251 94.3446 65.0508L99.203 60.0762C98.0842 58.7791 96.8581 57.8331 95.5553 57.2532V57.2685Z" fill="#7D8DDF"/>
<path d="M134.974 57.8789L128.384 61.709C129.886 64.2726 130.468 67.2024 130.1 70.2085C129.334 76.1902 124.414 81.0427 118.376 81.7294C114.667 82.1566 111.065 81.1037 108.23 78.7538C105.809 76.7548 102.284 76.9989 100.199 79.3031C98.8812 80.7528 97.088 81.5615 95.1416 81.5615V89.1607C98.6513 89.1607 102.038 87.8789 104.644 85.59C108.199 88.0925 112.383 89.4201 116.751 89.4201C117.579 89.4201 118.407 89.3743 119.25 89.2828C128.736 88.1994 136.476 80.5697 137.672 71.1546C138.269 66.4852 137.334 61.8921 134.974 57.8789Z" fill="#7D8DDF"/>
<path d="M78.4974 11.0478C83.5704 7.50764 90.4058 6.68364 98.2681 8.6521L100.138 1.28181C87.4019 -1.90741 78.9572 1.4344 74.1295 4.82199C68.4588 8.77418 64.6579 14.9542 63.5545 21.9278C59.1099 21.6073 52.8262 22.7671 47.8299 27.1465C40.7186 33.3723 39.4925 43.0773 39.7224 50.1272L47.3548 49.883C47.1096 42.0092 48.964 36.2869 52.8722 32.8535C56.6884 29.5117 61.5314 29.237 63.7997 29.6033C65.5009 29.8779 67.2481 29.4354 68.5968 28.413C69.9301 27.3907 70.8037 25.8495 70.9723 24.1709C71.524 18.7996 74.2674 14.0234 78.5281 11.0631L78.4974 11.0478Z" fill="#7D8DDF"/>
</g>
<defs>
<clipPath id="clip0_14_675">
<rect width="137" height="90" fill="white" transform="translate(0.840088)"/>
</clipPath>
</defs>
</svg>
