<svg width="269" height="269" viewBox="0 0 269 269" fill="none" xmlns="http://www.w3.org/2000/svg">
<g clip-path="url(#clip0_14_942)">
<g filter="url(#filter0_b_14_942)">
<path d="M134.84 268.514C208.846 268.514 268.84 208.618 268.84 134.733C268.84 60.8486 208.846 0.953125 134.84 0.953125C60.8339 0.953125 0.840088 60.8486 0.840088 134.733C0.840088 208.618 60.8339 268.514 134.84 268.514Z" fill="white"/>
</g>
<path d="M82.8169 53.354L87.0999 56.1593L82.4623 63.186L104.586 77.7297L101.095 83.0133L78.9704 68.4696L74.3328 75.4964L70.0498 72.6911L82.8169 53.354Z" fill="#7D8DDF"/>
<path d="M96.3752 46.0549C95.3658 45.837 94.602 45.2923 94.0291 44.3936C93.4835 43.4948 93.3198 42.5415 93.5653 41.5611C93.8109 40.5806 94.411 39.7908 95.3658 39.1916C96.3206 38.5924 97.3027 38.4018 98.2848 38.6197C99.2942 38.8375 100.058 39.3822 100.631 40.281C101.204 41.1798 101.34 42.133 101.095 43.1135C100.849 44.094 100.249 44.8838 99.2942 45.483C98.3394 46.0822 97.3573 46.2728 96.3752 46.0549ZM103.523 46.3817L116.781 67.6526L111.407 71.0025L98.1484 49.7317L103.523 46.3817Z" fill="#7D8DDF"/>
<path d="M157.51 43.4403C159.228 45.4557 159.965 48.1793 159.692 51.5292L158.519 66.1819L152.19 65.6644L153.309 51.8833C153.472 49.9223 153.09 48.3972 152.19 47.2805C151.29 46.1639 149.98 45.5374 148.262 45.4013C146.543 45.2651 145.152 45.6736 144.061 46.6269C142.969 47.5801 142.342 49.0236 142.178 50.9845L141.06 64.7656L134.731 64.2482L135.849 50.4671C136.013 48.5061 135.631 46.9809 134.731 45.8643C133.831 44.7476 132.521 44.1212 130.803 43.985C129.057 43.8489 127.638 44.2574 126.547 45.2106C125.456 46.1639 124.828 47.6073 124.665 49.5683L123.546 63.3494L117.217 62.8319L119.236 37.8843L125.565 38.4018L125.319 41.4249C126.219 40.4444 127.338 39.7091 128.647 39.1916C129.984 38.7014 131.403 38.5107 132.93 38.6197C134.895 38.7831 136.586 39.3278 138.059 40.281C139.532 41.2343 140.623 42.5143 141.333 44.094C142.26 42.705 143.542 41.6428 145.152 40.9074C146.761 40.1721 148.48 39.8725 150.281 40.0087C153.336 40.2538 155.737 41.3977 157.483 43.4131L157.51 43.4403Z" fill="#7D8DDF"/>
<path d="M181.871 73.3176L165.639 64.7929C164.93 66.4542 164.821 68.0067 165.339 69.4501C165.858 70.8936 166.84 71.9558 168.285 72.7184C170.359 73.8078 172.323 73.6988 174.151 72.3643L180.207 75.5509C178.434 77.3484 176.279 78.465 173.741 78.8736C171.204 79.2821 168.613 78.8191 165.967 77.4301C163.839 76.3134 162.147 74.8427 160.974 72.9907C159.774 71.166 159.147 69.1233 159.119 66.89C159.092 64.6567 159.665 62.3962 160.865 60.1356C162.066 57.8479 163.593 56.0776 165.448 54.8247C167.303 53.5719 169.295 52.9455 171.477 52.891C173.66 52.8365 175.842 53.3813 178.024 54.5251C180.125 55.6418 181.789 57.0853 182.989 58.8556C184.19 60.6259 184.79 62.614 184.844 64.7656C184.899 66.9172 184.353 69.0688 183.208 71.2204C182.798 72.0103 182.362 72.7184 181.898 73.2903L181.871 73.3176ZM178.188 66.5904C178.925 65.1469 179.007 63.7035 178.434 62.3145C177.861 60.9255 176.851 59.836 175.378 59.0462C173.987 58.3109 172.596 58.1202 171.204 58.4743C169.813 58.8283 168.613 59.6726 167.631 61.0616L178.161 66.5904H178.188Z" fill="#7D8DDF"/>
<path d="M184.463 83.8849C183.535 82.3597 183.044 80.8073 182.962 79.2276C182.88 77.648 183.262 76.2045 184.053 74.87L189.319 78.465C188.882 79.3366 188.8 80.2626 189.128 81.243C189.455 82.2235 190.137 83.0678 191.146 83.7759C192.128 84.4568 193.056 84.7836 193.902 84.7836C194.72 84.7836 195.375 84.4568 195.784 83.8304C196.248 83.1495 196.248 82.4142 195.784 81.6243C195.32 80.8073 194.502 79.7179 193.274 78.3016C191.992 76.8854 190.983 75.6325 190.273 74.5431C189.564 73.481 189.128 72.2826 188.991 70.9753C188.855 69.668 189.237 68.3335 190.192 66.9172C190.983 65.7733 192.019 64.9563 193.329 64.466C194.638 63.9758 196.084 63.8669 197.694 64.1664C199.303 64.466 200.94 65.1742 202.604 66.318C205.059 68.0066 206.614 69.9676 207.242 72.2009C207.869 74.4342 207.542 76.6403 206.26 78.8463L201.24 75.4147C201.731 74.5431 201.84 73.6444 201.567 72.7456C201.295 71.8468 200.64 71.057 199.63 70.3489C198.676 69.6952 197.83 69.3684 197.093 69.3684C196.357 69.3684 195.757 69.668 195.32 70.2944C194.829 71.0025 194.829 71.7651 195.266 72.5822C195.729 73.4265 196.548 74.5159 197.748 75.9049C198.976 77.2939 199.958 78.5195 200.667 79.5817C201.376 80.6439 201.786 81.8422 201.922 83.1495C202.058 84.4568 201.676 85.8186 200.749 87.2076C199.931 88.4059 198.867 89.2502 197.557 89.7405C196.248 90.2307 194.802 90.3397 193.192 90.0128C191.583 89.686 189.973 88.9779 188.336 87.8612C186.645 86.6901 185.336 85.3556 184.408 83.8304L184.463 83.8849Z" fill="#7D8DDF"/>
<path d="M221.018 101.615C222.9 102.759 224.319 104.23 225.246 106.054C226.174 107.852 226.556 109.813 226.42 111.965C226.283 113.817 225.792 115.423 224.946 116.785C224.101 118.147 223.064 119.182 221.864 119.945L225.437 120.19L224.974 126.536L199.958 124.738L200.422 118.392L204.077 118.664C202.959 117.766 202.058 116.567 201.404 115.097C200.749 113.626 200.476 111.937 200.613 110.085C200.776 107.988 201.431 106.109 202.659 104.448C203.859 102.786 205.496 101.533 207.542 100.662C209.588 99.7904 211.879 99.4635 214.444 99.6269C216.981 99.8176 219.19 100.471 221.073 101.615H221.018ZM216.926 118.664C218.072 118.147 218.972 117.384 219.627 116.404C220.281 115.423 220.663 114.361 220.745 113.163C220.827 111.992 220.609 110.875 220.118 109.867C219.627 108.833 218.836 107.961 217.772 107.28C216.708 106.572 215.426 106.191 213.925 106.082C212.425 105.973 211.088 106.191 209.915 106.735C208.742 107.28 207.814 108.015 207.132 108.996C206.45 109.949 206.069 111.011 205.987 112.155C205.905 113.326 206.123 114.443 206.641 115.505C207.16 116.567 207.951 117.439 208.988 118.12C210.051 118.801 211.334 119.182 212.861 119.291C214.389 119.4 215.726 119.182 216.871 118.664H216.926Z" fill="#7D8DDF"/>
<path d="M219.299 136.749L195.839 145.627L193.602 139.717L217.062 130.839L219.299 136.749ZM220.991 129.804C221.4 128.85 222.082 128.197 223.064 127.843C224.046 127.461 225.001 127.489 225.929 127.952C226.856 128.387 227.511 129.123 227.92 130.185C228.329 131.247 228.302 132.228 227.92 133.154C227.511 134.107 226.829 134.761 225.847 135.115C224.865 135.496 223.91 135.469 222.982 135.006C222.055 134.543 221.4 133.835 220.991 132.772C220.582 131.737 220.609 130.73 220.991 129.804Z" fill="#7D8DDF"/>
<path d="M225.71 152.981C226.883 153.962 227.729 155.242 228.329 156.821L222.082 159.109L221.509 157.529C220.827 155.65 219.872 154.425 218.645 153.798C217.417 153.172 215.726 153.253 213.543 154.043L201.813 158.319L199.63 152.382L223.2 143.775L225.383 149.713L221.727 151.047C223.255 151.347 224.592 152.001 225.765 152.981H225.71Z" fill="#7D8DDF"/>
<path d="M191.255 225.781L188.991 221.206L196.548 217.474L184.79 193.78L190.464 190.974L202.222 214.669L209.779 210.938L212.043 215.514L191.283 225.781H191.255Z" fill="#7D8DDF"/>
<path d="M170.359 221.26L169.731 196.231L176.06 196.067L176.688 221.097L170.359 221.26ZM176.361 225.155C177.124 225.836 177.506 226.707 177.534 227.769C177.534 228.832 177.206 229.703 176.497 230.438C175.788 231.174 174.86 231.555 173.742 231.582C172.623 231.61 171.696 231.283 170.932 230.602C170.168 229.921 169.786 229.049 169.759 227.987C169.731 226.925 170.086 226.054 170.795 225.318C171.505 224.583 172.432 224.202 173.551 224.174C174.669 224.147 175.597 224.474 176.361 225.155Z" fill="#7D8DDF"/>
<path d="M125.51 226.489C123.246 225.1 121.718 222.731 120.955 219.463L117.572 205.164L123.737 203.721L126.902 217.175C127.365 219.081 128.184 220.416 129.384 221.206C130.584 221.996 132.03 222.186 133.722 221.778C135.386 221.396 136.613 220.552 137.35 219.326C138.086 218.074 138.25 216.521 137.786 214.615L134.622 201.16L140.787 199.717L143.952 213.171C144.415 215.078 145.234 216.412 146.434 217.202C147.634 217.992 149.08 218.183 150.772 217.801C152.463 217.393 153.691 216.576 154.455 215.323C155.191 214.07 155.355 212.518 154.891 210.611L151.727 197.157L157.892 195.713L163.648 220.089L157.483 221.532L156.773 218.591C156.228 219.817 155.382 220.852 154.291 221.723C153.2 222.595 151.863 223.221 150.39 223.575C148.48 224.011 146.68 224.011 144.988 223.575C143.297 223.112 141.878 222.241 140.678 220.933C140.214 222.54 139.341 223.929 138.032 225.128C136.722 226.326 135.167 227.143 133.422 227.552C130.421 228.26 127.802 227.906 125.51 226.517V226.489Z" fill="#7D8DDF"/>
<path d="M91.3284 199.581L106.523 209.821C107.424 208.242 107.696 206.716 107.342 205.246C106.987 203.775 106.142 202.577 104.777 201.678C102.813 200.371 100.876 200.262 98.9123 201.378L93.238 197.565C95.2022 195.986 97.4664 195.114 100.031 194.978C102.595 194.842 105.132 195.604 107.615 197.266C109.606 198.628 111.106 200.262 112.089 202.223C113.071 204.184 113.453 206.281 113.262 208.487C113.043 210.72 112.225 212.872 110.779 214.996C109.333 217.148 107.615 218.727 105.65 219.762C103.686 220.797 101.613 221.206 99.4306 221.015C97.2755 220.824 95.1476 220.035 93.1016 218.646C91.1374 217.311 89.637 215.704 88.6549 213.798C87.6729 211.891 87.2637 209.876 87.4546 207.724C87.6456 205.573 88.4367 203.503 89.8007 201.487C90.319 200.752 90.8101 200.098 91.3284 199.554V199.581ZM94.2474 206.662C93.3744 208.024 93.1289 209.44 93.5108 210.883C93.8927 212.327 94.793 213.525 96.1843 214.451C97.4937 215.323 98.8577 215.677 100.276 215.486C101.695 215.296 102.977 214.56 104.123 213.307L94.2474 206.662Z" fill="#7D8DDF"/>
<path d="M85.6812 172.808C87.318 173.544 88.6002 174.551 89.555 175.832C90.5098 177.112 91.0281 178.501 91.11 180.026H84.7264C84.6173 179.045 84.1263 178.256 83.3079 177.629C82.4894 177.003 81.4528 176.676 80.1979 176.676C78.9976 176.676 78.0428 176.921 77.3608 177.384C76.6788 177.874 76.3514 178.473 76.3514 179.236C76.3514 180.053 76.7606 180.652 77.6063 181.061C78.452 181.469 79.7614 181.905 81.5619 182.395C83.4443 182.858 84.9719 183.321 86.145 183.812C87.3453 184.302 88.3547 185.037 89.2276 186.018C90.1006 187.025 90.5098 188.36 90.5098 190.048C90.5098 191.437 90.1006 192.69 89.3095 193.834C88.5184 194.978 87.3726 195.877 85.8722 196.53C84.3718 197.184 82.6258 197.511 80.6071 197.511C77.6063 197.511 75.2329 196.748 73.4597 195.278C71.6865 193.78 70.7044 191.764 70.5135 189.231H76.5697C76.6515 190.239 77.0607 191.029 77.8245 191.601C78.5884 192.173 79.5432 192.472 80.7981 192.5C81.9438 192.5 82.8168 192.282 83.4443 191.873C84.0717 191.465 84.3718 190.865 84.3718 190.103C84.3718 189.259 83.9626 188.605 83.1169 188.169C82.2712 187.733 80.9618 187.298 79.1886 186.835C77.3881 186.372 75.8877 185.909 74.7146 185.418C73.5416 184.928 72.5322 184.193 71.6592 183.185C70.7863 182.177 70.3498 180.843 70.3225 179.182C70.3225 177.738 70.7317 176.431 71.5228 175.287C72.314 174.143 73.4597 173.244 74.9601 172.591C76.4605 171.937 78.2065 171.61 80.1979 171.637C82.2439 171.637 84.099 172.019 85.7085 172.754L85.6812 172.808Z" fill="#7D8DDF"/>
<path d="M44.0246 174.579C41.8422 174.197 39.9871 173.353 38.4595 172.019C36.9318 170.684 35.8406 168.995 35.2131 166.953C34.6402 165.182 34.5311 163.494 34.8312 161.941C35.1313 160.389 35.7042 159.027 36.5498 157.883L33.1398 158.946L31.2302 152.872L55.1549 145.355L57.0645 151.429L53.5727 152.518C54.9367 152.954 56.2188 153.716 57.3646 154.86C58.5376 156.004 59.3833 157.448 59.9562 159.245C60.5836 161.261 60.6382 163.249 60.1472 165.237C59.6288 167.225 58.5922 168.995 57.0099 170.548C55.4277 172.1 53.409 173.271 50.9538 174.034C48.5258 174.797 46.2343 174.987 44.0519 174.606L44.0246 174.579ZM41.5694 157.23C40.6964 158.129 40.1508 159.163 39.878 160.307C39.6325 161.451 39.6871 162.595 40.0417 163.712C40.3963 164.828 40.9965 165.782 41.8422 166.572C42.6879 167.361 43.7245 167.879 44.9794 168.124C46.207 168.396 47.5437 168.287 48.9896 167.824C50.4354 167.361 51.6085 166.68 52.4814 165.754C53.3817 164.828 53.9546 163.793 54.2274 162.65C54.5002 161.506 54.4729 160.389 54.1183 159.3C53.7636 158.183 53.1635 157.23 52.2905 156.413C51.4175 155.623 50.3809 155.078 49.126 154.833C47.8984 154.588 46.5344 154.697 45.0885 155.16C43.6154 155.623 42.4424 156.304 41.5694 157.203V157.23Z" fill="#7D8DDF"/>
<path d="M27.6839 139.799C26.9473 140.507 26.047 140.834 24.9831 140.807C23.9192 140.78 23.0462 140.371 22.3642 139.608C21.6822 138.846 21.3549 137.893 21.4094 136.803C21.464 135.687 21.8459 134.788 22.5825 134.052C23.319 133.344 24.2193 133.018 25.2832 133.045C26.3471 133.072 27.2201 133.481 27.9021 134.243C28.5841 135.006 28.9115 135.959 28.8569 137.048C28.8023 138.165 28.4204 139.064 27.6839 139.799ZM31.9668 134.052L57.0373 135.006L56.7918 141.324L31.7213 140.371L31.9668 134.052Z" fill="#7D8DDF"/>
<path d="M36.277 114.879C35.8951 113.408 35.9224 111.883 36.3589 110.249L42.7697 111.992L42.3332 113.599C41.8149 115.505 41.8695 117.085 42.4969 118.31C43.1243 119.536 44.5702 120.435 46.8072 121.061L58.865 124.329L57.2009 130.43L33.0034 123.866L34.6675 117.766L38.4322 118.773C37.3682 117.63 36.6317 116.349 36.2498 114.879H36.277Z" fill="#7D8DDF"/>
<path d="M67.049 100.117C69.8966 100.117 72.205 97.8126 72.205 94.9697C72.205 92.1268 69.8966 89.8222 67.049 89.8222C64.2015 89.8222 61.8931 92.1268 61.8931 94.9697C61.8931 97.8126 64.2015 100.117 67.049 100.117Z" fill="#7D8DDF"/>
<path d="M212.779 188.251C215.627 188.251 217.935 185.946 217.935 183.103C217.935 180.261 215.627 177.956 212.779 177.956C209.932 177.956 207.624 180.261 207.624 183.103C207.624 185.946 209.932 188.251 212.779 188.251Z" fill="#7D8DDF"/>
<path d="M181.08 140.099C181.08 140.099 197.557 118.501 189.264 101.806C180.971 85.1105 157.674 88.0791 157.674 88.0791C157.674 88.0791 156.828 81.7878 153.445 77.8931C148.153 71.8196 138.878 71.6562 131.648 72.7184C119.836 74.4614 105.596 78.7646 100.303 103.685C100.303 103.685 67.4309 99.0005 67.0489 139.554C66.6943 180.107 100.085 163.957 100.085 163.957C100.085 163.957 97.2481 211.292 155.9 184.166C155.9 184.166 164.93 193.453 181.816 184.656C187.845 181.524 193.438 174.688 194.42 167.988C197.475 146.662 181.571 140.344 181.08 140.126V140.099ZM160.865 116.349H140.378V169.731H130.039V116.349H109.551V106.926H160.865V116.349Z" fill="#7D8DDF"/>
</g>
<defs>
<filter id="filter0_b_14_942" x="-3.15991" y="-3.04688" width="276" height="275.56" filterUnits="userSpaceOnUse" color-interpolation-filters="sRGB">
<feFlood flood-opacity="0" result="BackgroundImageFix"/>
<feGaussianBlur in="BackgroundImageFix" stdDeviation="2"/>
<feComposite in2="SourceAlpha" operator="in" result="effect1_backgroundBlur_14_942"/>
<feBlend mode="normal" in="SourceGraphic" in2="effect1_backgroundBlur_14_942" result="shape"/>
</filter>
<clipPath id="clip0_14_942">
<rect width="268" height="267.56" fill="white" transform="translate(0.840088 0.953125)"/>
</clipPath>
</defs>
</svg>
