<svg width="718" height="788" viewBox="0 0 718 788" fill="none" xmlns="http://www.w3.org/2000/svg">
<mask id="mask0_17_2735" style="mask-type:luminance" maskUnits="userSpaceOnUse" x="-92" y="0" width="810" height="765">
<path d="M-91.1427 659.814L620.39 764.63L717.823 104.816L6.29088 0.000605859L-91.1427 659.814Z" fill="white"/>
</mask>
<g mask="url(#mask0_17_2735)">
<path d="M546.6 773.728C554.724 740.327 549.031 704.261 534.386 673.703C519.74 643.144 496.082 614.837 467.621 595.471C433.884 572.493 394.572 559.583 354.727 552.891C335.278 549.634 315.593 547.798 295.908 546.85C286.184 546.377 276.4 546.081 266.617 545.962C260.391 545.844 254.165 545.844 247.939 545.784C244.678 545.784 250.726 545.784 247.465 545.784C246.22 545.784 245.034 545.784 243.789 545.784C241.12 545.784 238.512 545.666 235.843 545.607C225.526 545.251 215.269 544.541 205.07 542.764C202.698 542.35 200.327 541.876 198.014 541.343C196.828 541.047 195.702 540.81 194.516 540.455C193.923 540.277 193.389 540.158 192.796 539.981C190.543 539.389 195.761 540.988 193.567 540.158C189.061 538.559 184.614 537.079 180.345 534.947C178.684 534.118 177.024 533.23 175.423 532.282C172.874 530.861 178.269 534.177 175.838 532.519C174.949 531.927 174 531.275 173.111 530.683C169.79 528.314 166.589 525.649 163.683 522.807C163.209 522.333 160.896 519.964 162.794 521.977C164.691 523.991 162.438 521.563 162.023 521.03C160.719 519.49 159.414 517.891 158.228 516.233C157.161 514.693 156.094 513.153 155.145 511.554C154.908 511.14 154.671 510.725 154.433 510.37C153.485 508.89 155.441 512.206 155.382 512.087C154.967 511.081 154.433 510.133 153.959 509.186C153.188 507.527 152.477 505.81 151.884 504.093C151.587 503.204 151.291 502.375 151.054 501.487C149.986 497.934 151.765 504.981 151.054 501.25C150.698 499.473 150.402 497.637 150.283 495.802C150.224 494.913 150.164 493.966 150.105 493.077C149.986 489.346 149.868 496.157 150.105 493.433C150.283 491.478 150.461 489.524 150.757 487.57C150.994 486.385 151.232 485.201 151.528 483.957C151.647 483.365 151.825 482.773 151.943 482.181C152.062 481.707 152.833 478.983 152.121 481.411C151.409 483.839 152.536 480.049 152.714 479.456C153.188 477.739 153.722 476.081 154.196 474.363C155.086 471.284 155.975 468.204 156.568 465.125C160.481 445.049 153.01 424.795 140.499 409.575C128.404 394.829 113.047 384.88 97.5117 374.398C90.1001 369.423 82.807 364.212 76.344 358.112C75.5732 357.401 74.8023 356.631 74.0315 355.861C73.6758 355.506 73.32 355.092 72.905 354.736C72.905 354.736 75.0988 357.224 73.9722 355.861C72.5492 354.144 71.1261 352.545 69.7624 350.768C68.5172 349.169 67.3907 347.452 66.2641 345.735C65.7897 344.965 65.2561 344.136 64.7817 343.366C62.9436 340.286 65.9676 345.794 64.7817 343.425C63.0029 339.99 61.4613 336.496 60.1569 332.824C59.5046 331.107 58.971 329.33 58.4373 327.554C58.2002 326.665 57.963 325.777 57.6665 324.889C57.1329 323.171 58.2002 327.021 58.1409 326.843C58.0223 326.251 57.8444 325.599 57.7258 325.007C55.947 317.131 55.0576 309.017 54.7612 300.904C54.7019 298.95 54.6426 296.995 54.6426 295.041C54.6426 294.567 54.6426 294.034 54.6426 293.561C54.6426 293.383 54.524 297.469 54.6426 295.633C54.6426 294.508 54.7019 293.324 54.7612 292.198C54.939 288.112 55.2355 283.967 55.6506 279.88C56.4807 271.53 57.7851 263.18 59.3267 254.889C66.2641 217.876 77.767 181.277 74.0315 143.138C72.1341 123.477 65.7304 104.289 54.524 88.1214C43.8512 72.7239 28.9685 60.2874 12.307 52.2333C4.00595 48.2062 -5.00666 45.482 -14.0786 43.8238C-22.4982 42.2841 -31.8073 49.213 -32.756 58.037C-33.7047 67.3347 -28.0125 75.3296 -18.9999 76.9878C-17.1025 77.3431 -15.2051 77.7577 -13.3077 78.2315C-11.944 78.5868 -9.45367 79.8897 -13.7821 78.0538C-12.8927 78.4091 -11.8847 78.646 -10.9953 78.9421C-7.02263 80.3042 -3.10927 81.9624 0.626217 83.8575C2.34573 84.7458 4.06524 85.6934 5.72546 86.7001C8.80872 88.4768 2.46432 84.5089 5.42899 86.5225C6.2591 87.0555 7.02992 87.5885 7.86003 88.1807C11.3583 90.6087 14.6195 93.2737 17.762 96.1756C18.4736 96.827 19.1851 97.5376 19.8966 98.1891C20.786 99.0774 22.4462 101.565 19.7187 97.9522C20.9046 99.492 22.3869 100.854 23.5728 102.394C26.241 105.71 28.7313 109.145 30.9845 112.817C31.4588 113.587 31.8739 114.712 32.4668 115.363L31.3995 113.35C31.696 113.942 31.9925 114.534 32.2889 115.126C33.1783 116.903 34.0084 118.68 34.7793 120.516C35.6094 122.529 36.3802 124.543 37.0917 126.615C37.3882 127.504 38.6333 133.544 39.2856 133.781L38.7519 131.649C38.9298 132.36 39.1077 133.011 39.2263 133.722C39.4634 134.788 39.6413 135.795 39.8785 136.861C40.2935 138.933 40.59 141.065 40.8865 143.197C41.4794 147.817 41.8352 152.436 41.9538 157.114C41.9538 158.18 41.9538 159.246 41.9538 160.372V161.438C41.9538 163.273 41.9538 162.859 41.9538 160.194C41.3608 162.03 41.7759 164.813 41.6573 166.708C41.3608 171.446 40.8865 176.243 40.2935 180.921C37.9811 199.339 33.6527 217.461 29.68 235.583C22.209 269.457 17.762 305.049 27.3676 338.865C32.4075 356.691 42.5467 372.266 55.8877 384.761C69.2288 397.257 85.0601 405.43 99.3498 416.267C102.492 418.636 105.457 421.123 108.362 423.788C109.074 424.44 109.785 425.15 110.497 425.861C111.505 426.868 112.691 429.118 110.378 425.624C111.624 427.519 113.462 429.118 114.885 430.895C116.071 432.435 117.256 434.034 118.324 435.633C118.857 436.462 119.391 437.232 119.925 438.061C120.755 439.423 121.111 441.614 119.806 437.705C120.399 439.482 121.526 441.14 122.237 442.917C123.067 444.93 123.482 447.181 124.372 449.194C122.711 445.167 123.838 447.181 124.135 448.661C124.312 449.609 124.431 450.556 124.55 451.445C124.668 452.333 124.727 453.34 124.787 454.287V455.235C124.787 457.071 124.787 456.538 124.846 453.636C124.194 455.649 124.431 458.314 124.016 460.387C123.779 461.572 123.482 462.756 123.186 463.94C123.008 464.71 122.771 465.539 122.534 466.309C123.186 463.94 123.304 463.704 122.771 465.539C119.45 476.673 116.723 487.037 117.434 498.763C118.62 517.95 128.937 534.888 141.923 548.153C155.797 562.248 174.119 570.184 192.974 574.566C213.727 579.363 235.31 579.067 256.478 579.185C257.367 579.185 261.577 579.126 256.833 579.185C258.019 579.185 259.146 579.185 260.332 579.185C262.644 579.185 265.016 579.245 267.328 579.304C272.427 579.422 277.467 579.541 282.567 579.778C292.35 580.133 302.133 580.725 311.858 581.554C331.247 583.212 350.576 585.818 369.55 590.141C374.056 591.148 378.563 592.273 383.01 593.517C384.077 593.813 385.322 593.991 386.33 594.464C382.18 592.688 385.5 594.228 386.567 594.524C389.117 595.294 391.726 596.123 394.276 596.952C403.407 599.972 412.36 603.525 421.076 607.612C425.286 609.566 429.437 611.639 433.469 613.83C435.484 614.955 437.56 616.08 439.576 617.265C440.524 617.798 441.473 618.39 442.422 618.923C444.912 620.403 438.983 616.732 442.837 619.219C449.537 623.542 456 628.339 462.107 633.491C465.072 635.979 467.918 638.584 470.705 641.249C472.128 642.611 473.492 643.974 474.855 645.336C475.508 646.046 476.16 646.757 476.871 647.408C473.136 643.914 476.516 647.053 477.286 647.882C482.682 653.864 487.722 660.2 492.288 666.892C494.481 670.09 496.557 673.347 498.513 676.664C499.521 678.322 500.352 680.039 501.359 681.698C498.81 677.611 500.648 680.395 501.122 681.342C501.715 682.467 502.308 683.593 502.842 684.777C506.34 691.884 509.364 699.286 511.795 706.867C512.388 708.643 512.922 710.479 513.396 712.315C513.633 713.203 513.811 714.151 514.108 715.039C512.566 710.302 513.693 713.322 513.93 714.506C514.819 718.474 515.59 722.501 516.124 726.528C516.657 730.259 517.013 733.99 517.191 737.78C517.309 739.675 517.369 741.57 517.369 743.406C517.369 744.65 517.013 747.907 517.369 742.696C517.25 743.939 517.309 745.242 517.25 746.486C516.835 754.125 515.708 761.706 513.87 769.108C511.795 777.636 519.385 787.23 527.626 788.059C537.173 789.007 544.051 783.025 546.304 773.846L546.6 773.728Z" fill="white"/>
</g>
</svg>
