<svg width="332" height="331" viewBox="0 0 332 331" fill="none" xmlns="http://www.w3.org/2000/svg">
<g clip-path="url(#clip0_17_2780)">
<path d="M152.241 331C136.052 331 122.22 326.909 110.895 318.806C90.1456 303.885 83.4572 279.336 81.3291 262.73C67.2682 266.741 46.1389 269.389 28.5059 257.676C9.88474 245.161 0.536172 220.212 0.840191 183.711C1.14421 145.926 11.3288 117.767 31.09 99.7974C49.3311 83.2715 70.9924 80.1428 83.6092 79.9021C99.0381 19.6546 135.672 6.25741 166.454 1.44403C194.652 -2.96823 216.389 2.96827 229.31 18.6118C234.706 25.19 237.975 33.3728 239.875 39.9511C258.8 39.7104 299.462 44.1227 317.323 82.1483C334.576 118.81 315.119 161.328 303.567 181.224C321.124 194.701 335.944 220.292 330.776 257.997C328.04 277.973 313.067 299.152 294.37 309.5C259.788 328.593 235.998 318.806 225.054 311.506C197.008 324.502 172.687 331.08 152.165 331.08L152.241 331ZM91.8937 234.01C94.0978 234.01 96.378 234.732 98.2781 236.096C101.622 238.503 103.522 242.514 103.294 246.766C103.294 247.087 101.698 283.187 123.892 298.991C143.197 312.789 177.095 308.538 221.862 286.637C226.27 284.551 231.438 285.514 234.858 289.204C235.39 289.765 251.807 305.89 283.957 288.161C296.194 281.422 306.683 267.062 308.355 254.628C314.055 212.751 288.29 198.712 283.045 196.386C279.853 194.942 277.345 191.893 276.509 188.364C275.597 184.754 276.281 180.983 278.409 178.015C278.789 177.533 313.599 128.277 297.03 92.8982C280.765 58.4023 232.958 64.4191 232.502 64.4993C226.194 65.3015 220.569 60.7288 219.733 54.1505C219.277 50.7009 216.997 40.272 212.285 34.4959C202.708 22.9438 184.011 23.1042 169.95 25.3505C143.881 29.4419 115.151 38.507 103.75 94.9038C102.458 101.081 96.91 105.172 90.9816 104.29C90.8296 104.29 64.9121 100.84 45.9109 118.249C31.47 131.485 24.0216 153.547 23.7936 183.951C23.6416 202.964 26.4537 227.673 40.8946 237.3C55.7155 247.247 79.2769 239.145 87.1814 235.214C88.7775 234.412 90.4496 234.01 92.1217 234.01H91.8937Z" fill="white"/>
</g>
<defs>
<clipPath id="clip0_17_2780">
<rect width="331" height="331" fill="white" transform="translate(0.839844)"/>
</clipPath>
</defs>
</svg>
