<svg width="108" height="323" viewBox="0 0 108 323" fill="none" xmlns="http://www.w3.org/2000/svg">
<g clip-path="url(#clip0_17_2782)">
<path d="M-108.957 273.549C-120.296 269.106 -128.862 262.444 -134.57 253.661C-145.008 237.515 -142.955 218.485 -139.888 206.27C-150.838 205.221 -166.363 201.276 -175.499 188.233C-185.107 174.357 -184.808 154.316 -174.577 128.833C-163.994 102.452 -149.132 85.5244 -130.36 78.3615C-113.048 71.7927 -97.017 75.5463 -88.114 78.8404C-60.7724 40.8766 -31.4364 41.5473 -8.55532 46.624C12.4057 51.2725 26.0016 61.3963 30.7581 75.8993C32.7324 81.9879 32.7757 88.6162 32.3012 93.7452C45.6227 98.7706 72.8923 113.021 74.9663 144.557C76.9888 174.97 51.6916 199.411 38.1396 210.175C46.7379 224.433 50.0952 246.425 36.1272 271.416C28.7284 284.656 12.4286 295.381 -3.50735 297.498C-32.9693 301.38 -46.9456 287.996 -52.6079 279.879C-75.8183 281.284 -94.6588 279.217 -109.032 273.585L-108.957 273.549ZM-124.607 189.054C-123.063 189.659 -121.664 190.79 -120.707 192.267C-119.025 194.87 -118.795 198.201 -120.122 201.117C-120.21 201.342 -131.236 226.189 -120.029 243.349C-110.294 258.312 -85.3844 264.637 -48.0184 261.584C-44.3583 261.333 -41.0026 263.425 -39.6198 266.949C-39.4013 267.488 -32.328 283.288 -4.94392 279.694C5.47632 278.332 16.7638 271.153 21.3476 262.902C36.8332 235.136 22.6397 218.231 19.605 215.163C17.7654 213.275 16.8453 210.452 17.2285 207.75C17.5805 204.971 19.0944 202.518 21.3996 201.023C21.7979 200.79 59.6979 175.843 57.8024 146.516C55.8775 117.891 20.7416 108.985 20.4001 108.916C15.7615 107.746 13.0771 103 14.2969 98.1629C14.9243 95.6216 16.1894 87.6912 14.4741 82.3523C10.937 71.6327 -2.20275 66.6137 -12.6677 64.328C-32.0501 60.0388 -54.6607 58.5034 -78.124 94.8756C-80.7244 98.8475 -85.7334 100.19 -89.6435 97.9453C-89.75 97.9036 -106.956 88.3744 -125.043 95.3526C-138.79 100.661 -150.062 114.068 -158.566 135.302C-163.891 148.577 -168.702 166.655 -161.23 177.361C-153.579 188.396 -134.853 189.187 -128.237 188.603C-126.899 188.48 -125.618 188.658 -124.447 189.116L-124.607 189.054Z" fill="white"/>
</g>
<defs>
<clipPath id="clip0_17_2782">
<rect width="249" height="249" fill="white" transform="translate(-124.157 0.159668) rotate(21.3972)"/>
</clipPath>
</defs>
</svg>
