<svg width="151" height="161" viewBox="0 0 151 161" fill="none" xmlns="http://www.w3.org/2000/svg">
<g clip-path="url(#clip0_17_2742)">
<path d="M101.604 40.6533C111.546 28.8521 127.494 22.4249 147.728 22.1103L147.447 3.11192C114.684 3.62206 96.4993 17.1802 87.0058 28.4443C75.8785 41.675 70.7366 59.0343 72.5781 76.5723C61.6715 78.6609 47.2417 85.55 38.0333 99.3087C24.8944 118.95 28.2476 143.17 33.3192 160.016L51.5675 154.501C45.8599 135.672 46.6384 120.628 53.8535 109.835C60.8931 99.2981 72.393 95.5219 78.0904 94.9333C82.3699 94.5162 86.278 92.3226 88.8934 88.9466C91.4524 85.6204 92.5347 81.3351 91.8717 77.1699C89.7306 63.8465 93.272 50.5293 101.595 40.6209L101.604 40.6533Z" fill="white"/>
</g>
<defs>
<clipPath id="clip0_17_2742">
<rect width="125.275" height="150.916" fill="white" transform="translate(146.613) rotate(75)"/>
</clipPath>
</defs>
</svg>
