<svg width="135" height="206" viewBox="0 0 135 206" fill="none" xmlns="http://www.w3.org/2000/svg">
<g clip-path="url(#clip0_17_2712)">
<path d="M38.5396 73.706C26.4921 56.4283 23.6521 33.1309 30.3858 6.34129L5.23739 0C-5.66483 43.3781 5.78708 72.1437 17.2848 88.6402C30.7981 107.986 51.8696 120.898 75.6438 124.666C74.5444 139.784 78.5296 161.243 93.4171 178.245C114.672 202.508 147.791 206.643 171.794 205.908L170.97 179.9C144.126 180.773 124.566 174.431 112.885 161.106C101.479 148.101 100.563 131.605 101.8 123.885C102.762 118.095 101.25 112.167 97.7231 107.526C94.2417 102.977 88.9738 100.036 83.2478 99.4388C64.9248 97.5548 48.6172 88.1807 38.4938 73.706H38.5396Z" fill="white"/>
</g>
<defs>
<clipPath id="clip0_17_2712">
<rect width="171" height="206" fill="white" transform="translate(0.839844)"/>
</clipPath>
</defs>
</svg>
